<?xml version="1.0" encoding="utf-8"?>
<!-- Generator: Adobe Illustrator 27.7.0, SVG Export Plug-In . SVG Version: 6.00 Build 0)  -->
<svg version="1.1" id="Layer_1" xmlns="http://www.w3.org/2000/svg" xmlns:xlink="http://www.w3.org/1999/xlink" x="0px" y="0px"
	 viewBox="0 0 2000 2000" style="enable-background:new 0 0 2000 2000;" xml:space="preserve">
<style type="text/css">
	.st0{fill:#F2F2F2;}
</style>
<g>
	<path class="st0" d="M716.9,995.8c22.8,2.7,45.2,5.5,67.6,8c15.4,1.8,30.6,4,45.5,8.2c7.1,2,14.2,4.6,20.7,8
		c31.2,16.6,35.4,48.7,9.8,73.2c-14.6,13.9-32.2,22.7-50.9,29.4c-21,7.6-42.8,11.9-64.4,16.8c-48.8,10.9-97.7,21.5-148.1,20.4
		c-8-0.2-16,0.2-23.8-2.8c-13.6-5.2-20.9-15.7-19.2-28.1c1.7-12.3,11.6-21.1,26.2-21.4c16.7-0.4,33.3,0.8,50,0.5
		c17.7-0.3,18-0.6,17.2-17.7c-0.7-16-2.3-32-3.1-48.1c-0.4-6.9-3.4-9.9-10.3-10.1c-10.5-0.2-21-0.3-31.5-1.1
		c-15-1.2-23.7-8.2-25.5-19.7c-1.7-11.1,5.1-21.3,18.8-26.2c11-3.9,22.4-7.1,33.7-9.8c7.5-1.8,10-5.6,9.4-13.1
		c-1.1-14.2-2.1-28.3-2.4-42.5c-0.1-8.3-4.1-10.7-11.4-10.8c-19.8-0.3-39.5-0.8-59.3-1.3c-5.5-0.1-11.2,0-16.6-0.9
		c-7.2-1.2-12.9-5.2-13.3-13.1c-0.5-7.9,4.4-12.7,11.3-15c5.2-1.8,10.7-3,16.2-3.8c10.4-1.4,20.9-2.9,31.3-3.2
		c59.2-1.9,118.5-3.5,177.8-5c11.1-0.3,22.2,0.1,33,3.5c23,7.3,31.2,26.6,20.2,48.2c-7.3,14.3-19.3,24-32.9,31.7
		c-21.5,12.1-43.3,23.8-64.8,35.9C724.3,987.9,718.5,988.3,716.9,995.8z M821,1060.4c-1.2-2.4-1.3-3.2-1.7-3.3
		c-38-11.2-77.6-11.6-116.5-17.1c-5.8-0.8-7.1,3.1-6.4,8.3c1.8,13.4,3.4,26.8,4.9,40.3c0.7,6.4,3.7,8.4,9.8,7
		c27.5-6.6,55.6-10.5,82.3-20.2C803.1,1071.8,812.9,1068.2,821,1060.4z M769.6,909.7c-1.7-1.3-2.5-2.6-3.4-2.6
		c-19.7,0.2-39.5-0.2-59.2,1.1c-39.7,2.7-34.5-6.7-27.1,37.3c1.4,8.3,4.8,10.6,12.4,6.5c20.6-11,41.4-21.8,62.1-32.9
		C759.7,916.5,765.7,914.8,769.6,909.7z"/>
	<path class="st0" d="M1079.1,979.3c-6.4,5.6-8.4,12.2-11.7,17.9c-8.7,14.9-16.8,30.3-28.6,43.2c-18.4,20.1-37.4,22.1-58.8,5.5
		c-12.2-9.5-23.1-20.5-34.6-30.7c-4.5-4-7.7-9.7-14.9-12.2c-2.7,3.8-1.1,8-0.7,11.9c2.7,24.5,5.6,49.1,8.3,73.6
		c1,9.3,1,18.6-2.7,27.4c-3.3,7.9-9,13.4-18,13.9c-9,0.6-15.4-4-19.6-11.5c-4.4-7.7-5.4-16.3-6-25c-3.6-47.4-5.5-94.9-10.6-142.3
		c-1.1-10.3-3.3-19-9.9-27c-4.3-5.2-7.8-11.2-10.9-17.1c-3.5-6.8-1.9-13.4,3.5-18.6c5.6-5.4,12.6-5.3,19-2
		c7.2,3.7,12.5,9.7,18.1,15.6c29.1,31.1,56.3,64.1,89.3,91.3c19.7,16.2,16.5,21.1,35-5c17.2-24.3,31-50.5,43.4-77.5
		c1.8-3.9,3.4-8,5.3-11.8c4.5-8.9,11-15.1,21.8-13.8c10.7,1.3,16.3,8.3,18.5,18.1c5.8,25.3,11.8,50.5,16.8,75.9
		c5.7,28.5,12.4,56.7,21,84.4c2.4,7.7,4.1,15.6,3.7,23.7c-0.6,13.8-7.9,23.9-19,26.7c-9.8,2.4-20.6-2.9-28-13.9
		c-4.5-6.8-7-14.4-9.2-22.1c-7-24.4-12.3-49.1-15.5-74.3C1083.3,995.7,1082.7,987.9,1079.1,979.3z"/>
	<path class="st0" d="M1426.8,1102.6c-10-0.7-18.1-4.9-25.7-10.3c-33.2-23.7-67.7-45.4-99.9-70.4c-10.3-8-10.6-7.8-18.1,2.9
		c-17.4,24.8-33.7,50.3-52.7,73.9c-5.8,7.2-11.5,14.6-19.2,19.9c-10.6,7.2-22.6,7.4-31.1,0.8c-8.5-6.6-11.1-18.1-6.9-30.2
		c3.3-9.6,10-16.9,16.2-24.6c19-23.5,38-47.1,56.8-70.8c8.4-10.6,8.2-10.8-1.9-20.5c-20.4-19.8-40.9-39.4-61.1-59.4
		c-8.3-8.3-16.1-17.1-20.8-28.1c-3.1-7.3-3.3-14.5,2.2-20.8c6.3-7.3,15.2-7.2,24.3,1.4c23.4,22.1,49.3,41.1,73.9,61.7
		c21.7,18.1,21.6,17.7,40.4-2.7c12.1-13.2,24.9-25.7,37.5-38.4c2.2-2.2,4.6-4.1,7.1-5.9c10.1-7.2,16.2-7.9,21.5-2.3
		c6.6,6.9,3.5,14-0.6,20.3c-12.8,19.6-26.1,39-39.2,58.4c-9.9,14.7-11.9,13.4,5.1,25.1c29,19.9,59.3,37.9,89.3,56.2
		c9,5.5,18.1,10.9,24.1,19.9c6.3,9.4,8,19.4,2.7,29.8C1445.7,1098,1437,1102,1426.8,1102.6z"/>
	<path class="st0" d="M1399.2,838.3c-20.6,9-36.9,16.2-53.3,23.3c-6.2,2.7-12.5,5.4-19,7.3c-10.9,3.2-18.7,0.1-22-7.8
		c-3-7.2,0.1-14.2,8.9-20c1.5-1,3.2-1.9,4.9-2.7c29-13.7,57.8-28.1,87.8-39.6c2.9-1.1,5.8-2.2,8.8-3c23.5-6.6,36.8,5.3,31.4,29.2
		c-5.1,22.3-12.3,44-21,65.2c-2.6,6.3-5.9,12.3-10.9,17.1c-11.1,10.7-22.2,7.8-26.2-6.9c-3.2-11.7-1.3-23.3,2.2-34.7
		C1393,858.1,1395.4,850.6,1399.2,838.3z"/>
</g>
</svg>
